<svg width="70" height="75" viewBox="0 0 70 75" fill="none" xmlns="http://www.w3.org/2000/svg">
<path d="M63.3835 12.4206L69.8949 14.1653L53.8615 74.0025L47.3502 72.2577L49.1456 65.5572L42.4792 63.771L40.6839 70.4715L14.1734 63.3681L15.9688 56.6675L9.45751 54.9228L7.66211 61.6234L0.995748 59.8371L17.0291 0L23.6954 1.78625L21.9 8.48676L28.4113 10.2315L30.2067 3.53095L56.7172 10.6344L54.9218 17.3349L61.5881 19.1212L63.3835 12.4206ZM17.7225 50.1229L19.5179 43.4224L13.0065 41.6777L11.2111 48.3782L17.7225 50.1229ZM21.3133 36.7218L23.0669 30.1772L16.5556 28.4325L14.8019 34.9771L21.3133 36.7218ZM24.8623 23.4767L26.6577 16.7761L20.1464 15.0314L18.351 21.7319L24.8623 23.4767ZM50.8993 59.0126L52.6946 52.312L46.0283 50.5258L44.2329 57.2263L50.8993 59.0126ZM54.49 45.6115L56.2437 39.0669L49.5773 37.2806L47.8237 43.8253L54.49 45.6115ZM58.0391 32.3663L59.8345 25.6658L53.1681 23.8796L51.3727 30.5801L58.0391 32.3663Z" fill="#00A890"/>
</svg>
