<svg width="101" height="101" viewBox="0 0 101 101" fill="none" xmlns="http://www.w3.org/2000/svg">
<path d="M76.9808 36.4262C76.7102 33.2944 76.4436 30.1666 76.2013 27.0287C76.1347 26.1706 75.8258 25.9363 75.006 26.0716C72.0619 26.5542 69.1038 26.95 66.1678 27.4649C63.8699 27.8687 61.5943 28.3998 59.2217 28.8925C59.4943 30.8774 59.7951 32.729 59.987 34.5826C60.0374 35.0794 60.1889 36.1314 60.3423 37.1531L68.4071 93.1523C68.4825 93.6907 68.5613 94.2379 68.6434 94.7939C68.7746 95.6662 68.9119 96.5587 69.0472 97.4956C72.7909 96.1811 76.3689 94.9473 79.9288 93.6591C81.835 92.9725 81.839 92.8514 81.5846 90.814C81.5523 90.5071 76.9808 36.4262 76.9808 36.4262Z" fill="#FD9017"/>
<path d="M66.7759 18.9559C66.8345 19.4527 66.8729 19.9514 66.9556 20.4441C67.1576 21.6799 66.3721 22.5946 65.1484 22.6794C64.2053 22.7696 63.27 22.9282 62.3498 23.1539C61.5421 23.3336 60.8071 23.3255 60.2316 22.6572C59.6562 21.9888 59.7026 21.2942 60.0156 20.5006C60.312 19.7467 60.5154 18.9595 60.6213 18.1563C60.6696 17.6525 60.911 17.1869 61.295 16.8572C61.6789 16.5274 62.1756 16.3591 62.681 16.3875C63.3722 16.4383 64.0665 16.4316 64.7567 16.3673C66.1136 16.2199 66.8971 17.1649 66.7759 18.9559Z" fill="#00A890"/>
<path d="M31.2535 24.2828C31.7462 24.2 32.2389 24.1132 32.7316 24.0324C34.145 23.7982 34.977 24.5272 35.0173 25.9648C35.0389 26.5633 35.1214 27.158 35.2637 27.7397C35.5787 29.0845 35.1748 29.5813 33.8341 29.7166C33.1294 29.7893 32.4509 30.1345 31.7684 30.3809C31.3646 30.5263 30.9951 30.8211 30.5851 30.8756C28.8143 31.1078 28.045 30.0679 28.6447 28.3637C28.8811 27.7794 29.0131 27.1581 29.0344 26.5282C28.99 24.8058 29.5028 24.2182 31.2535 24.2828Z" fill="#00A890"/>
<path d="M52.5645 18.4935C52.5386 18.8073 52.4763 19.117 52.3787 19.4163C52.1546 19.9736 51.8557 20.2038 51.0844 20.0968C49.6966 19.9332 48.2944 19.9332 46.9066 20.0968C45.4932 20.2381 44.7057 19.5758 45.2812 18.3178C45.8122 17.1548 46.3332 16.0846 46.3392 14.7479C46.3392 14.3319 47.1469 13.7382 47.7083 13.5363C48.0768 13.3936 48.4866 13.4009 48.8497 13.5568C49.2129 13.7127 49.5004 14.0048 49.6508 14.3703C49.9738 15.0487 50.303 15.5111 51.1611 15.5818C51.878 15.6605 52.5665 17.1487 52.5645 18.4935Z" fill="#00A890"/>
<path d="M75.416 24.3555C74.463 24.2748 73.6977 23.9214 73.3766 23.0451C73.0556 22.1687 73.2959 21.4297 74.0309 20.7997C74.4993 20.3958 74.8285 19.8224 75.206 19.3135C75.9148 18.3544 77.2394 18.2918 78.1137 19.0652C78.7727 19.656 79.5074 20.1564 80.2985 20.5533C81.4293 21.1086 81.9604 22.1687 81.3829 23.1501C81.2173 23.4348 80.87 23.7558 80.5752 23.7982C78.8427 24.0304 77.1021 24.1819 75.416 24.3555Z" fill="#00A890"/>
<path d="M26.4902 34.1708C25.3756 33.9548 24.2953 33.767 23.2251 33.5328C22.2438 33.3308 21.6723 32.2324 22.054 31.1319C22.3649 30.2394 22.6052 29.4034 22.4578 28.4201C22.3144 27.5235 23.1807 26.734 24.1378 26.6452C24.8667 26.5765 25.5957 26.5099 26.3226 26.4433C27.2615 26.3443 27.5624 26.6674 27.1767 27.5175C26.571 28.8441 26.6033 30.096 27.3282 31.354C27.46 31.5773 27.4992 31.8433 27.4372 32.0951C27.1283 32.8543 26.7567 33.5913 26.4902 34.1708Z" fill="#00A890"/>
<path d="M20.3781 33.3572C19.7724 33.7267 19.1363 34.072 18.5447 34.4799C17.4604 35.227 16.055 34.6051 15.7925 33.2118C15.6673 32.5535 15.635 31.8791 15.5421 31.2148C15.3583 29.8942 15.6208 28.8422 17.0141 28.2688C17.4442 28.0931 17.7774 27.6246 18.0964 27.243C18.6396 26.5928 19.3382 26.3767 20.0753 26.6756C20.4044 26.8089 20.8002 27.3298 20.788 27.661C20.7436 28.7493 20.4852 29.8276 20.3842 30.918C20.3216 31.7337 20.3781 32.5616 20.3781 33.3572Z" fill="#00A890"/>
<path d="M54.8322 12.5572C55.7065 12.4199 56.5809 12.2805 57.4572 12.1533C57.8392 12.0741 58.2366 12.1217 58.5891 12.289C58.9415 12.4563 59.2297 12.7341 59.4098 13.0801C59.8298 13.8212 59.7813 14.6309 59.1513 15.2023C58.38 15.901 57.857 16.5815 57.8328 17.7203C57.8126 18.6532 57.0089 19.1721 56.074 19.1701C55.1916 19.1701 54.4284 18.6916 54.3496 17.797C54.2587 16.7531 53.6913 16.0221 53.2411 15.1721C53.1047 14.8851 53.0291 14.573 53.019 14.2554C53.0089 13.9378 53.0646 13.6215 53.1825 13.3265C53.4288 12.8217 54.1558 12.5551 54.6727 12.1836C54.7232 12.3048 54.7777 12.4299 54.8322 12.5572Z" fill="#00A890"/>
<path d="M61.6267 14.7015C61.2915 13.6596 60.9079 12.7973 60.7564 11.8988C60.6433 11.2304 60.5989 10.3278 60.9583 9.86947C61.3178 9.4111 62.2002 9.31418 62.8786 9.17485C63.4198 9.0638 64.0033 9.17485 64.5546 9.10822C65.8691 8.92245 66.8484 9.75033 66.8686 11.079C66.8807 11.8422 66.9453 12.6096 67.0241 13.3688C67.1331 14.4147 66.695 14.8428 65.6732 14.7822C64.9766 14.7358 64.2699 14.857 63.5692 14.8448C62.8685 14.8327 62.18 14.7419 61.6267 14.7015Z" fill="#00A890"/>
<path d="M23.3423 25.1351C22.8758 24.2749 22.585 23.6509 22.2175 23.0755C21.4603 21.8861 22.0156 20.5575 23.3806 20.1637C24.1648 19.94 24.9129 19.6047 25.6018 19.1683C26.8133 18.401 28.1884 18.8553 28.5034 20.2506C28.8063 21.5913 29.1859 22.9846 27.8754 24.0528C27.5428 24.343 27.1464 24.5505 26.7184 24.6585C25.5472 24.8706 24.3579 24.9957 23.3423 25.1351Z" fill="#00A890"/>
<path d="M36.7517 26.4372C36.7517 24.2927 35.9097 22.9358 33.9611 22.3381C33.2443 22.118 33.1696 21.5648 33.7915 21.167C35.2655 20.224 36.6386 19.0852 38.3671 18.5905C39.6533 18.223 40.8023 19.1962 40.7518 20.541C40.7134 21.5345 40.2591 22.3078 39.6533 23.055C38.8577 24.0323 38.1288 25.0742 37.3554 26.0596C37.2464 26.1969 37.0404 26.2514 36.7517 26.4372Z" fill="#00A890"/>
<path d="M20.6951 35.437C20.5134 36.277 20.2408 37.1069 20.1722 37.9549C20.0995 38.8616 20.0328 39.8389 20.2913 40.6869C20.6951 41.9853 20.3579 42.692 18.9546 42.8253C18.163 42.902 17.3513 43.0636 16.58 42.9566C16.0043 42.8433 15.4833 42.5404 15.0999 42.0964C14.5708 41.4785 14.6718 40.6991 15.1403 40.0428C15.8389 39.0574 16.4608 37.9731 17.3392 37.1755C18.2176 36.3779 19.3766 35.8711 20.4125 35.2371L20.6951 35.437Z" fill="#00A890"/>
<path d="M29.4886 37.3855C29.1575 36.6283 28.8707 35.9599 28.5739 35.2956C27.8732 33.7206 28.8001 32.5111 30.5245 32.5636C31.1626 32.5838 31.8713 32.2426 32.4468 31.8973C33.6361 31.1804 34.6558 31.2471 35.2414 32.2224C35.8734 33.2744 35.4776 34.8211 34.3792 35.3441C32.9879 36.0064 31.5664 36.6101 30.1509 37.224C29.9357 37.2986 29.714 37.3526 29.4886 37.3855Z" fill="#00A890"/>
<path d="M42.4822 20.5066C42.0682 17.7605 40.9819 16.8882 38.0682 16.8882C37.8763 16.8882 37.5068 16.4642 37.523 16.2622C37.5957 15.3738 38.2418 15.0022 39.0293 14.7337C39.8019 14.4773 40.5462 14.1423 41.2505 13.7342C42.0581 13.2556 42.9809 13.2435 43.6614 13.8594C44.4691 14.5964 44.7861 15.713 44.3177 16.4843C43.7119 17.4818 43.2778 18.4753 43.4918 19.7151C43.5423 20.0059 43.0193 20.3956 42.7608 20.7409L42.4822 20.5066Z" fill="#00A890"/>
<path d="M33.7656 15.5112C34.6964 15.6203 35.2941 15.9757 35.6293 16.8056C35.9403 17.5789 35.5062 17.9121 34.9731 18.2655C34.3895 18.6511 33.8363 19.0731 33.2507 19.4588C32.3825 19.9947 31.7624 20.853 31.5263 21.8455C31.4637 22.0919 31.2557 22.3019 31.1224 22.528C30.9205 22.3039 30.6095 22.1121 30.5167 21.8455C30.3672 21.4417 30.4258 20.9672 30.2784 20.5653C29.9876 19.7577 29.715 18.9237 29.2546 18.219C28.7377 17.4255 28.7236 17.1145 29.5898 16.7167C29.7641 16.617 29.9605 16.5622 30.1613 16.5572C31.1751 16.6422 32.1862 16.3646 33.0144 15.7737C33.2515 15.652 33.5043 15.5636 33.7656 15.5112Z" fill="#00A890"/>
<path d="M45.481 25.8781C45.5839 25.0704 45.7172 24.1981 45.8081 23.3197C45.903 22.4071 46.5007 21.7831 47.4235 21.7185C48.2863 21.6606 49.1492 21.6182 50.0121 21.5913C50.9389 21.563 51.5346 22.0335 51.8031 22.9018C52.0273 23.6307 51.8839 24.1133 51.0762 24.4949C50.3493 24.8321 49.7758 25.4884 49.1034 25.9609C48.8127 26.1628 48.429 26.4193 48.116 26.3849C47.2155 26.284 46.3189 26.0497 45.481 25.8781Z" fill="#00A890"/>
<path d="M22.811 35.1826C23.4653 35.3361 24.38 35.536 25.2846 35.7682C25.6056 35.849 25.9105 36.1155 26.2175 36.1054C27.2574 36.0771 27.4795 36.7112 27.6309 37.5552C27.7844 38.4336 27.1625 38.6537 26.6213 38.9485C25.7026 39.4371 24.804 39.9843 23.8287 40.3397C23.2997 40.5416 22.498 40.6063 22.078 40.3397C21.4561 39.9359 21.5086 39.1423 21.7792 38.4134C22.1104 37.4704 22.385 36.5052 22.811 35.1826Z" fill="#00A890"/>
<path d="M8.00606 35.0754C9.18327 35.0936 9.7648 35.6307 9.87788 36.5515C9.96269 37.2501 10.1444 37.9508 10.1222 38.6454C10.104 39.1563 9.96269 39.9196 9.6275 40.0973C9.155 40.3456 8.4301 40.2527 7.85058 40.1316C7.09539 39.9721 6.3927 39.5803 5.64155 39.3986C4.8904 39.2169 4.30684 38.8898 4.22809 38.0619C4.14934 37.234 4.69049 36.917 5.37299 36.6242C5.97876 36.3597 6.51183 35.8973 7.09135 35.5459C7.45077 35.3379 7.83039 35.1602 8.00606 35.0754Z" fill="#00A890"/>
<path d="M43.046 28.9794C41.786 28.4241 40.7723 28.0162 39.795 27.5377C38.8864 27.0934 38.7491 26.5987 39.371 25.8112C40.2036 24.7189 41.1075 23.6828 42.0768 22.7097C42.418 22.3785 43.1086 22.2877 43.6255 22.318C43.7951 22.318 44.0294 23.0651 44.0294 23.4709C44.0294 24.0525 43.8395 24.634 43.7265 25.2135C43.6134 25.7931 43.5044 26.3201 43.4014 26.8733C43.3004 27.4831 43.1995 28.0929 43.046 28.9794Z" fill="#00A890"/>
<path d="M36.2046 14.6813C34.5691 13.4819 32.9012 13.7565 31.4029 14.7056C31.0677 13.8131 30.6861 13.0215 30.4963 12.1876C30.4014 11.7615 30.4963 11.0629 30.781 10.8367C31.1848 10.5076 31.9239 10.2673 32.3964 10.4046C33.1657 10.6247 33.7593 11.0104 34.7185 10.861C35.617 10.7136 36.5176 11.4667 36.8912 12.5026C37.2122 13.3749 36.9618 14.0736 36.2046 14.6813Z" fill="#00A890"/>
<path d="M57.879 20.3655C58.2222 21.5063 58.511 22.6391 58.9108 23.7295C59.2238 24.5857 58.9976 25.1773 58.091 25.2096C57.5963 25.2278 57.0814 24.9552 56.5927 24.8058C55.9405 24.6038 55.3085 24.311 54.6421 24.1798C53.9758 24.0485 53.5316 23.8284 53.4972 23.0551C53.4791 22.6331 53.3074 22.2171 53.2085 21.7971C53.0227 20.9894 53.7517 20.2504 54.5089 20.5189C55.7446 20.947 56.9279 20.9329 57.879 20.3655Z" fill="#00A890"/>
<path d="M51.4641 12.7226C50.4727 12.3188 49.9396 11.6625 50.0971 10.6549C50.2546 9.64734 51.0138 9.15465 51.9588 9.12436C53.0411 9.09003 53.9377 8.87398 54.7656 8.07032C55.5934 7.26667 56.9019 7.57965 57.5057 8.47417C58.1437 9.41715 57.7984 10.3783 56.7121 10.6327C56.3578 10.7365 55.9881 10.7775 55.6197 10.7539C53.8327 10.5015 52.4556 11.1072 51.4641 12.7226Z" fill="#00A890"/>
<path d="M38.0969 10.8023C37.4609 10.3864 36.7622 10.0128 36.1706 9.51609C35.7486 9.16272 35.2074 8.64176 35.2034 8.19148C35.1994 7.74119 35.7405 7.22225 36.1524 6.85677C36.6411 6.42062 37.2691 6.14398 37.8001 5.75023C38.4927 5.23735 39.1994 5.08187 39.9385 5.57658C40.6775 6.07129 40.7179 6.74571 40.417 7.52715C40.2777 7.89061 40.2838 8.30657 40.1848 8.68821C40.1375 8.89542 40.035 9.08593 39.888 9.23945C39.2822 9.79474 38.6502 10.3238 38.0969 10.8023Z" fill="#00A890"/>
<path d="M46.3574 2.84666L41.7838 5.0254C41.2607 4.51254 40.764 3.97338 40.2957 3.41002C39.6899 2.63262 39.9282 1.79464 40.7924 1.31003C41.4608 0.94253 42.1332 0.575032 42.8116 0.225706C43.5971 -0.170062 44.3785 -0.0468895 44.9035 0.607339C45.4831 1.31407 45.9111 2.14397 46.3574 2.84666Z" fill="#00A890"/>
<path d="M39.6656 12.84C39.5101 11.7476 39.8675 11.055 40.6954 10.7279C42.1762 10.1436 43.6731 9.61392 45.1862 9.13873C46.0403 8.87018 46.8642 9.03979 47.4194 9.83738C47.9747 10.635 47.7405 11.4952 46.848 11.9616C46.319 12.2382 45.8162 12.5674 45.2084 12.9288C43.5466 11.3902 41.703 11.2125 39.6656 12.84Z" fill="#00A890"/>
<path d="M68.4516 17.3326C68.4516 16.5713 68.3123 15.6829 68.5021 14.8691C68.5907 14.5837 68.7375 14.3198 68.9332 14.0939C69.1288 13.868 69.3691 13.6851 69.6389 13.5566C70.3497 13.2618 71.0928 13.5728 71.5774 14.2512C71.7793 14.5238 71.8843 14.8711 72.1226 15.0933C72.5793 15.5011 73.0593 15.8821 73.5603 16.2341C74.0039 16.5198 74.4108 16.8589 74.7718 17.2437C72.6779 17.6173 70.6829 18.1382 68.4516 17.3326Z" fill="#00A890"/>
<path d="M68.5327 19.2913C70.0713 18.9824 71.6383 20.3757 73.1648 19.1843C71.5797 20.624 71.091 22.2132 71.9734 24.1294C72.0238 24.2746 72.0238 24.4325 71.9734 24.5777C71.3223 24.792 70.6523 24.9441 69.9724 25.032C69.7321 25.0522 69.3666 24.715 69.2152 24.4505C68.6538 23.4833 68.2641 22.4918 68.6094 21.3005C68.7689 20.7533 68.5791 20.1132 68.5327 19.2913Z" fill="#00A890"/>
<path d="M59.4822 8.66612C58.8764 7.19612 57.9274 6.26324 56.3907 5.9644C56.2232 5.93209 55.9869 5.38892 56.0535 5.15671C56.2656 4.42979 57.2227 4.14709 58.0728 4.30257C58.8792 4.44226 59.6986 4.49237 60.516 4.452C61.3035 4.41767 61.9477 4.62969 62.301 5.31623C62.6544 6.00276 62.4181 6.66103 61.8245 7.10526C61.1097 7.64843 60.3303 8.10679 59.4822 8.66612Z" fill="#00A890"/>
<path d="M41.1477 30.2296C40.6954 31.2856 40.5056 32.372 39.8695 33.0181C39.284 33.6118 38.2198 33.735 37.4202 34.0419C37.1032 32.8707 36.6832 31.8995 36.6226 30.904C36.6035 30.1475 36.8468 29.4076 37.3112 28.8101C37.501 28.5758 38.4783 28.8545 39.0295 29.0706C39.7343 29.3452 40.3683 29.7914 41.1477 30.2296Z" fill="#00A890"/>
<path d="M49.3599 5.21133C49.8828 4.93672 50.3553 4.6823 50.8339 4.43797C51.4619 4.11893 52.108 3.8322 52.7219 3.48692C53.0369 3.31124 53.2751 2.91144 53.5942 2.84884C54.0384 2.76201 54.5271 2.8973 54.9975 2.93769C54.9127 3.29913 54.8421 3.66461 54.7371 4.01797C54.6058 4.4622 54.3756 4.88826 54.309 5.33854C54.2648 5.70203 54.1425 6.05165 53.9503 6.36336C53.7582 6.67507 53.5009 6.94148 53.196 7.14428C52.8911 7.34708 52.546 7.48146 52.1842 7.53818C51.8225 7.5949 51.4527 7.57262 51.1004 7.47286C50.9205 7.40484 50.7665 7.28192 50.6602 7.12152C50.2705 6.57835 49.9071 6.01902 49.3599 5.21133Z" fill="#00A890"/>
<path d="M56.3343 27.8669L50.2888 29.555C50.2888 28.7876 50.2161 28.1556 50.3069 27.5478C50.4362 26.6675 50.9713 26.096 51.9082 26.0334C52.7724 25.9749 53.6407 25.9426 54.5069 25.9284C55.4984 25.9163 56.0334 26.4534 56.3343 27.8669Z" fill="#00A890"/>
<path d="M20.986 24.8826C20.0814 24.9411 19.2172 24.8422 18.466 25.0845C17.8138 25.2965 17.2989 25.9144 16.6992 26.3162C16.335 26.5338 15.9588 26.7307 15.5725 26.9058C15.3705 26.3808 15.0596 25.8639 15.0273 25.3288C15.0111 25.036 15.4735 24.7231 15.7178 24.404C16.0793 23.9436 16.5255 23.5236 16.784 23.0128C17.3898 21.8497 18.6397 21.6316 19.4716 22.6332C19.8976 23.1481 20.2651 23.7094 20.6468 24.2606C20.7709 24.4617 20.8842 24.6693 20.986 24.8826Z" fill="#00A890"/>
<path d="M24.481 17.183C23.9237 16.3168 24.1498 15.7514 24.6829 15.1638C25.1917 14.6146 25.5491 13.9079 26.0964 13.4212C26.5507 13.0174 27.213 12.5893 27.7582 12.6135C28.5396 12.658 29.3736 13.1103 29.4402 14.0613C29.4664 14.4167 29.1212 14.8549 28.8344 15.1658C27.6855 16.4985 25.7228 15.9533 24.481 17.183Z" fill="#00A890"/>
<path d="M75.2506 8.55901C74.6933 7.69478 74.3762 6.7195 74.9134 6.13594C75.4222 5.58671 75.7776 4.87999 76.3268 4.39133C76.7832 3.98749 77.9886 3.96932 78.5338 4.00162C79.3153 4.04605 80.1492 4.49835 80.2158 5.45143C80.2421 5.80479 80.3269 7.25055 80.0503 7.56152C78.8852 8.88613 76.2279 9.7443 75.2506 8.55901Z" fill="#00A890"/>
<path d="M49.156 8.74479C48.1928 8.23999 47.4982 7.64432 46.7329 7.53326C45.7496 7.38989 44.7137 7.66047 43.7041 7.6948C43.3588 7.70691 43.0075 7.54537 42.6602 7.46259C42.8136 7.07691 42.8621 6.53172 43.1448 6.33384C43.9525 5.77048 44.8288 5.20105 45.7698 4.92038C46.2806 4.77298 47.1105 5.06375 47.5386 5.44538C48.1444 5.98249 48.5321 6.76595 48.9339 7.48884C49.0934 7.80989 49.0672 8.23595 49.156 8.74479Z" fill="#00A890"/>
<path d="M41.9958 31.9457C42.4926 31.4086 42.8258 30.8452 43.3184 30.5585C44.0433 30.1385 44.6289 29.7629 44.7985 28.8361C44.8231 28.6589 44.8829 28.4884 44.9743 28.3347C45.0657 28.1809 45.1869 28.0469 45.3308 27.9406C45.4747 27.8344 45.6384 27.7579 45.8123 27.7158C45.9861 27.6736 46.1666 27.6666 46.3432 27.6952C46.9675 27.8204 47.5266 28.1641 47.9203 28.6645C48.3423 29.2702 48.3079 30.0921 47.4498 30.4151C45.8344 31.0209 44.1766 31.5439 42.533 32.0911C42.4562 32.1174 42.3472 32.0447 41.9958 31.9457Z" fill="#00A890"/>
<path d="M28.6468 11.0287C26.7447 10.6006 25.2888 11.1963 24.3479 13.0338C23.8148 12.4118 23.944 11.8424 24.3479 11.3719C25.2081 10.3623 26.1167 9.40117 27.0355 8.44608C27.6412 7.82214 28.3742 7.65252 29.1375 8.10887C29.7432 8.47031 30.0885 8.9529 29.5009 9.66367C29.1869 10.0996 28.9016 10.5556 28.6468 11.0287Z" fill="#00A890"/>
<path d="M37.6927 3.84827C36.8285 4.39951 36.039 4.82355 35.3464 5.37278C34.7406 5.85739 34.2318 6.4773 33.6846 7.04066C33.4201 7.31527 33.0929 7.87056 32.9173 7.82614C32.3761 7.68681 31.7522 7.42229 31.4392 7.00027C31.2373 6.72364 31.4008 6.03105 31.6108 5.63326C31.7643 5.33845 32.2327 5.13653 32.5982 5.03759C33.5392 4.78317 34.4297 4.58932 35.0738 3.68269C35.5988 2.94365 36.6003 3.04663 37.6927 3.84827Z" fill="#00A890"/>
<path d="M23.0232 18.1988C22.1731 18.9418 21.4078 19.6324 20.6102 20.2967C20.384 20.4886 20.0044 20.7854 19.8409 20.7147C19.2484 20.483 18.7056 20.1404 18.2416 19.7051C18.1366 19.5981 18.5062 18.8631 18.7969 18.5481C19.439 17.8535 20.1942 17.2679 20.8586 16.5935C21.5754 15.8645 22.167 15.9877 22.5123 16.959C22.69 17.4597 22.9141 17.9403 23.0232 18.1988Z" fill="#00A890"/>
<path d="M8.19585 47.0334C9.3771 47.2455 10.3039 47.3202 11.1661 47.5948C11.8406 47.8088 11.9334 48.453 11.5356 49.0082C11.085 49.6369 10.5648 50.2127 9.98488 50.7246C9.83339 50.8419 9.65741 50.9235 9.47002 50.9633C9.28264 51.0032 9.08868 51.0002 8.90258 50.9548C8.61585 50.8437 8.43412 50.3894 8.26451 50.0542C8.01817 49.5984 7.81535 49.1205 7.65874 48.6266C7.55374 48.2672 7.45682 47.8189 7.58806 47.5019C7.70316 47.2233 8.13124 47.0779 8.19585 47.0334Z" fill="#00A890"/>
<path d="M52.841 1.25749C51.9647 1.72595 51.1388 2.86075 49.6688 3.08489C48.5865 3.25046 48.1766 3.10306 47.7384 1.69566C47.5486 1.08989 48.0857 0.369031 48.8995 0.231724C49.2301 0.191166 49.5656 0.222857 49.8828 0.324608C50.9288 0.63355 51.9667 0.978837 52.841 1.25749Z" fill="#00A890"/>
<path d="M57.9819 27.4932C59.1652 26.5704 60.0436 25.7809 61.0289 25.1671C61.4631 24.8965 62.1274 24.8864 62.6665 24.9429C62.929 24.9712 63.1895 25.4033 63.3551 25.7062C63.4076 25.8031 63.1915 26.1949 63.0421 26.2353C61.4388 26.6552 59.8255 27.0429 57.9819 27.4932Z" fill="#00A890"/>
<path d="M64.8352 24.4343C65.5056 24.3515 66.1013 24.192 66.6767 24.2445C66.9594 24.2687 67.2078 24.6867 67.4723 24.927C67.2441 25.1653 67.0584 25.5328 66.7817 25.6196C65.5904 25.9952 65.1522 25.7206 64.8352 24.4343Z" fill="#00A890"/>
<path d="M58.4585 99.7634C56.1303 100.111 53.9435 100.448 51.7547 100.761C48.2917 101.589 47.165 100.022 47.0499 99.7634C45.1841 95.523 43.7545 92.159 41.9251 87.9065C41.8929 87.8142 41.8673 87.7197 41.8483 87.6238C41.8847 87.5572 33.2868 67.9344 33.1071 67.5225C29.6462 59.5936 26.2135 51.6514 22.8091 43.6956C22.698 43.4392 22.8091 42.8354 22.9888 42.7425C27.215 40.6082 31.4554 38.5244 35.8634 36.3477C43.4254 57.5758 50.9086 78.5717 58.4585 99.7634Z" fill="#FD9017"/>
<path d="M94.5681 61.596L93.4356 66.926C94.5025 66.9014 95.3477 66.6347 95.9714 66.1259C96.5951 65.6171 96.9069 64.9688 96.9069 64.181C96.9069 63.5983 96.7182 63.11 96.3407 62.7161C95.9714 62.3222 95.3805 61.9488 94.5681 61.596ZM93.5956 58.3216L94.642 53.3609C93.6982 53.3773 92.9268 53.6276 92.3278 54.1117C91.7287 54.5959 91.4292 55.1991 91.4292 55.9212C91.4292 56.4629 91.6056 56.9224 91.9585 57.2999C92.3196 57.6774 92.8653 58.018 93.5956 58.3216ZM95.1343 58.9248L95.479 59.0602C96.8823 59.61 97.9368 60.2706 98.6426 61.042C99.3565 61.8052 99.7135 62.7367 99.7135 63.8363C99.7135 65.494 99.098 66.8234 97.8671 67.8246C96.6443 68.8176 95.0605 69.3141 93.1156 69.3141H92.9309L92.6232 70.742H90.9491L91.2938 69.1171C89.9315 68.8135 88.8154 68.2103 87.9455 67.3076C87.0757 66.3967 86.612 65.3176 86.5546 64.0702H89.2381C89.3365 64.7431 89.6073 65.3094 90.0505 65.7689C90.5018 66.2203 91.0845 66.5444 91.7984 66.7414L93.0171 60.9928L92.3647 60.7466C91.1584 60.287 90.231 59.6634 89.5827 58.8755C88.9344 58.0877 88.6103 57.1768 88.6103 56.1428C88.6103 54.6246 89.1929 53.3814 90.3582 52.413C91.5317 51.4447 93.0704 50.9605 94.9743 50.9605H95.159L95.4913 49.3849H97.1654L96.7838 51.1821C98.0394 51.4939 99.0488 52.0971 99.812 52.9916C100.583 53.8861 100.977 54.9119 100.994 56.069H98.3471C98.2569 55.4535 98.0312 54.9365 97.6701 54.518C97.3172 54.0912 96.8495 53.7835 96.2668 53.5947L95.1343 58.9248Z" fill="#00A890"/>
<path d="M5.86156 15.2849L5.03313 19.184C5.81353 19.1659 6.43185 18.9708 6.88809 18.5987C7.34433 18.2265 7.57244 17.7522 7.57244 17.1759C7.57244 16.7497 7.43437 16.3925 7.15823 16.1044C6.88809 15.8162 6.45586 15.5431 5.86156 15.2849ZM5.15019 12.8897L5.91558 9.26081C5.22523 9.27281 4.66093 9.45591 4.2227 9.81009C3.78448 10.1643 3.56536 10.6055 3.56536 11.1338C3.56536 11.53 3.69443 11.8662 3.95256 12.1423C4.2167 12.4184 4.61591 12.6676 5.15019 12.8897ZM6.27577 13.3309L6.5279 13.43C7.55444 13.8322 8.32584 14.3154 8.8421 14.8797C9.36438 15.438 9.62551 16.1194 9.62551 16.9238C9.62551 18.1364 9.17528 19.1089 8.27481 19.8413C7.38034 20.5677 6.22174 20.9309 4.799 20.9309H4.66393L4.43882 21.9754H3.21418L3.46631 20.7868C2.46979 20.5647 1.65337 20.1234 1.01704 19.4631C0.38071 18.7968 0.0415335 18.0073 -0.000488281 17.0949H1.96253C2.03457 17.5871 2.23267 18.0013 2.55684 18.3375C2.88701 18.6677 3.31323 18.9048 3.8355 19.0489L4.72697 14.8437L4.24972 14.6636C3.36726 14.3274 2.68891 13.8712 2.21466 13.2949C1.74042 12.7186 1.50329 12.0523 1.50329 11.2959C1.50329 10.1853 1.92951 9.27581 2.78196 8.56745C3.6404 7.85908 4.76599 7.50489 6.15871 7.50489H6.29378L6.53691 6.35229H7.76154L7.4824 7.66698C8.40088 7.8951 9.13926 8.33633 9.69755 8.99067C10.2618 9.645 10.55 10.3954 10.562 11.2418H8.62599C8.55996 10.7916 8.39487 10.4134 8.13073 10.1072C7.8726 9.79508 7.53042 9.56997 7.1042 9.43189L6.27577 13.3309Z" fill="#00A890"/>
<path d="M17.04 65.7151L16.2116 69.6141C16.992 69.5961 17.6103 69.401 18.0665 69.0288C18.5228 68.6566 18.7509 68.1823 18.7509 67.606C18.7509 67.1798 18.6128 66.8226 18.3367 66.5345C18.0665 66.2463 17.6343 65.9732 17.04 65.7151ZM16.3286 63.3198L17.094 59.6909C16.4037 59.7029 15.8394 59.886 15.4011 60.2402C14.9629 60.5944 14.7438 61.0356 14.7438 61.5639C14.7438 61.9601 14.8729 62.2963 15.131 62.5724C15.3951 62.8486 15.7943 63.0977 16.3286 63.3198ZM17.4542 63.761L17.7063 63.8601C18.7329 64.2623 19.5043 64.7456 20.0205 65.3099C20.5428 65.8681 20.8039 66.5495 20.8039 67.3539C20.8039 68.5665 20.3537 69.539 19.4532 70.2714C18.5588 70.9978 17.4002 71.361 15.9774 71.361H15.8424L15.6172 72.4055H14.3926L14.6447 71.2169C13.6482 70.9948 12.8318 70.5536 12.1955 69.8932C11.5591 69.2269 11.22 68.4375 11.1779 67.525H13.141C13.213 68.0173 13.4111 68.4315 13.7353 68.7676C14.0654 69.0978 14.4917 69.3349 15.0139 69.479L15.9054 65.2738L15.4281 65.0937C14.5457 64.7576 13.8673 64.3013 13.3931 63.725C12.9188 63.1487 12.6817 62.4824 12.6817 61.726C12.6817 60.6154 13.1079 59.7059 13.9604 58.9976C14.8188 58.2892 15.9444 57.935 17.3371 57.935H17.4722L17.7153 56.7824H18.94L18.6608 58.0971C19.5793 58.3252 20.3177 58.7665 20.876 59.4208C21.4403 60.0751 21.7284 60.8255 21.7404 61.672H19.8044C19.7384 61.2217 19.5733 60.8435 19.3092 60.5374C19.051 60.2252 18.7089 60.0001 18.2826 59.862L17.4542 63.761Z" fill="#00A890"/>
</svg>
