<svg xmlns="http://www.w3.org/2000/svg" viewBox="0 0 505.38 500.18"><defs><style>.cls-1,.cls-3,.cls-4{fill:#00a890;}.cls-2{fill:#fd9017;}.cls-3{font-size:124.85px;}.cls-3,.cls-4{font-family:SFProDisplay-MediumItalic, SF Pro Display;font-weight:500;font-style:italic;}.cls-4{font-size:91.33px;}</style></defs><g id="Capa_2" data-name="Capa 2"><g id="Capa_1-2" data-name="Capa 1"><path class="cls-1" d="M309.85,206.86c-1.33-15.51-2.66-31-3.86-46.54-.33-4.25-3.41-17.91-7.48-17.24-14.58,2.39-41.21,13.32-55.75,15.87-11.39,2-48.18,18.62-59.93,21.06,1.35,9.83-4.21,40.89-3.27,50.09.26,2.46,17.46,57.94,18.23,63l96.94,201s40-6.35,52.48-11.2c25.55-9.89,58.88-21,58.88-21Z"/><path class="cls-2" d="M386.46,180.39c-1.34-15.51-2.66-31-3.86-46.54-.33-4.25-1.86-5.41-5.92-4.74-14.58,2.39-29.23,4.35-43.77,6.9-11.38,2-22.65,4.63-34.4,7.07,1.35,9.83,2.84,19,3.79,28.18.25,2.46,1,7.67,1.76,12.73L344,461.32q.56,4,1.17,8.13v0h0c.65,4.32,1.33,8.74,2,13.38,18.54-6.51,36.26-12.62,53.89-19,9.44-3.4,9.46-4,8.2-14.09C409.1,448.22,386.46,180.39,386.46,180.39Z"/><path class="cls-1" d="M335.92,93.87c.29,2.46.48,4.93.89,7.37,1,6.12-2.89,10.65-8.95,11.07A96.87,96.87,0,0,0,314,114.66c-4,.89-7.64.85-10.49-2.46s-2.62-6.75-1.07-10.68a49.38,49.38,0,0,0,3-11.61,9.7,9.7,0,0,1,10.2-8.76,61.88,61.88,0,0,0,10.28-.1C332.64,80.32,336.52,85,335.92,93.87Z"/><path class="cls-1" d="M160,120.25c2.44-.41,4.88-.84,7.32-1.24,7-1.16,11.12,2.45,11.32,9.57a43.58,43.58,0,0,0,1.22,8.79c1.56,6.66-.44,9.12-7.08,9.79-3.49.36-6.85,2.07-10.23,3.29-2,.72-3.83,2.18-5.86,2.45-8.77,1.15-12.58-4-9.61-12.44a26.63,26.63,0,0,0,1.93-9.09C148.79,122.84,151.33,119.93,160,120.25Z"/><path class="cls-1" d="M265.54,91.58a20.08,20.08,0,0,1-.92,4.57c-1.11,2.76-2.59,3.9-6.41,3.37a88.38,88.38,0,0,0-20.69,0c-7,.7-10.9-2.58-8.05-8.81,2.63-5.76,5.21-11.06,5.24-17.68,0-2.06,4-5,6.78-6a7.48,7.48,0,0,1,9.62,4.13c1.6,3.36,3.23,5.65,7.48,6C262.14,77.55,265.55,84.92,265.54,91.58Z"/><path class="cls-1" d="M378.71,120.61c-4.72-.4-8.51-2.15-10.1-6.49s-.4-8,3.24-11.12c2.32-2,3.95-4.84,5.82-7.36,3.51-4.75,10.07-5.06,14.4-1.23a49.38,49.38,0,0,0,10.82,7.37c5.6,2.75,8.23,8,5.37,12.86-.82,1.41-2.54,3-4,3.21C395.68,119,387.06,119.75,378.71,120.61Z"/><path class="cls-1" d="M136.41,169.22c-5.52-1.07-10.87-2-16.17-3.16-4.86-1-7.69-6.44-5.8-11.89,1.54-4.42,2.73-8.56,2-13.43-.71-4.44,3.58-8.35,8.32-8.79,3.61-.34,7.22-.67,10.82-1,4.65-.49,6.14,1.11,4.23,5.32-3,6.57-2.84,12.77.75,19a4.91,4.91,0,0,1,.54,3.67C139.57,162.7,137.73,166.35,136.41,169.22Z"/><path class="cls-1" d="M106.14,165.19c-3,1.83-6.15,3.54-9.08,5.56-5.37,3.7-12.33.62-13.63-6.28-.62-3.26-.78-6.6-1.24-9.89-.91-6.54.39-11.75,7.29-14.59,2.13-.87,3.78-3.19,5.36-5.08,2.69-3.22,6.15-4.29,9.8-2.81,1.63.66,3.59,3.24,3.53,4.88-.22,5.39-1.5,10.73-2,16.13C105.86,157.15,106.14,161.25,106.14,165.19Z"/><path class="cls-1" d="M276.77,62.18c4.33-.68,8.66-1.37,13-2a8.87,8.87,0,0,1,9.67,4.59c2.08,3.67,1.84,7.68-1.28,10.51-3.82,3.46-6.41,6.83-6.53,12.47-.1,4.62-4.08,7.19-8.71,7.18-4.37,0-8.15-2.37-8.54-6.8-.45-5.17-3.26-8.79-5.49-13a11.42,11.42,0,0,1-.29-9.14c1.22-2.5,4.82-3.82,7.38-5.66C276.23,60.93,276.5,61.55,276.77,62.18Z"/><path class="cls-1" d="M310.42,72.8c-1.66-5.16-3.56-9.43-4.31-13.88-.56-3.31-.78-7.78,1-10.05s6.15-2.75,9.51-3.44c2.68-.55,5.57,0,8.3-.33,6.51-.92,11.36,3.18,11.46,9.76.06,3.78.38,7.58.77,11.34.54,5.18-1.63,7.3-6.69,7-3.45-.23-6.95.37-10.42.31S313.16,73,310.42,72.8Z"/><path class="cls-1" d="M120.82,124.47c-2.31-4.26-3.75-7.35-5.57-10.2-3.75-5.89-1-12.47,5.76-14.42a42.17,42.17,0,0,0,11-4.93c6-3.8,12.81-1.55,14.37,5.36,1.5,6.64,3.38,13.54-3.11,18.83a13.88,13.88,0,0,1-5.73,3C131.74,123.16,125.85,123.78,120.82,124.47Z"/><path class="cls-1" d="M187.23,130.92c0-10.62-4.17-17.34-13.82-20.3-3.55-1.09-3.92-3.83-.84-5.8,7.3-4.67,14.1-10.31,22.66-12.76,6.37-1.82,12.06,3,11.81,9.66-.19,4.92-2.44,8.75-5.44,12.45-3.94,4.84-7.55,10-11.38,14.88C189.68,129.73,188.66,130,187.23,130.92Z"/><path class="cls-1" d="M107.71,175.49c-.9,4.16-2.25,8.27-2.59,12.47-.36,4.49-.69,9.33.59,13.53,2,6.43.33,9.93-6.62,10.59-3.92.38-7.94,1.18-11.76.65A13,13,0,0,1,80,208.47c-2.62-3.06-2.12-6.92.2-10.17,3.46-4.88,6.54-10.25,10.89-14.2s10.09-6.46,15.22-9.6Z"/><path class="cls-1" d="M151.26,185.14c-1.64-3.75-3.06-7.06-4.53-10.35-3.47-7.8,1.12-13.79,9.66-13.53,3.16.1,6.67-1.59,9.52-3.3,5.89-3.55,10.94-3.22,13.84,1.61,3.13,5.21,1.17,12.87-4.27,15.46-6.89,3.28-13.93,6.27-20.94,9.31A17.91,17.91,0,0,1,151.26,185.14Z"/><path class="cls-1" d="M215.61,101.55c-2.05-13.6-7.43-17.92-21.86-17.92-.95,0-2.78-2.1-2.7-3.1.36-4.4,3.56-6.24,7.46-7.57a59,59,0,0,0,11-4.95c4-2.37,8.57-2.43,11.94.62,4,3.65,5.57,9.18,3.25,13-3,4.94-5.15,9.86-4.09,16,.25,1.44-2.34,3.37-3.62,5.08Z"/><path class="cls-1" d="M172.44,76.81c4.61.54,7.57,2.3,9.23,6.41,1.54,3.83-.61,5.48-3.25,7.23-2.89,1.91-5.63,4-8.53,5.91a19.08,19.08,0,0,0-8.54,11.82c-.31,1.22-1.34,2.26-2,3.38-1-1.11-2.54-2.06-3-3.38-.74-2-.45-4.35-1.18-6.34-1.44-4-2.79-8.13-5.07-11.62-2.56-3.93-2.63-5.47,1.66-7.44a6,6,0,0,1,2.83-.79,21.27,21.27,0,0,0,14.13-3.88A14.29,14.29,0,0,1,172.44,76.81Z"/><path class="cls-1" d="M230.46,128.15c.51-4,1.17-8.32,1.62-12.67.47-4.52,3.43-7.61,8-7.93q6.41-.43,12.82-.63c4.59-.14,7.54,2.19,8.87,6.49,1.11,3.61.4,6-3.6,7.89-3.6,1.67-6.44,4.92-9.77,7.26-1.44,1-3.34,2.27-4.89,2.1C239.05,130.16,234.61,129,230.46,128.15Z"/><path class="cls-1" d="M118.19,174.23c3.24.76,7.77,1.75,12.25,2.9,1.59.4,3.1,1.72,4.62,1.67,5.15-.14,6.25,3,7,7.18.76,4.35-2.32,5.44-5,6.9-4.55,2.42-9,5.13-13.83,6.89-2.62,1-6.59,1.32-8.67,0-3.08-2-2.82-5.93-1.48-9.54C114.72,185.56,116.08,180.78,118.19,174.23Z"/><path class="cls-1" d="M44.87,173.7c5.83.09,8.71,2.75,9.27,7.31.42,3.46,1.32,6.93,1.21,10.37-.09,2.53-.79,6.31-2.45,7.19-2.34,1.23-5.93.77-8.8.17-3.74-.79-7.22-2.73-10.94-3.63s-6.61-2.52-7-6.62,2.29-5.67,5.67-7.12c3-1.31,5.64-3.6,8.51-5.34C42.12,175,44,174.12,44.87,173.7Z"/><path class="cls-1" d="M218.4,143.51c-6.24-2.75-11.26-4.77-16.1-7.14-4.5-2.2-5.18-4.65-2.1-8.55a154.34,154.34,0,0,1,13.4-15.36c1.69-1.64,5.11-2.09,7.67-1.94.84,0,2,3.7,2,5.71,0,2.88-.94,5.76-1.5,8.63s-1.1,5.48-1.61,8.22C219.66,136.1,219.16,139.12,218.4,143.51Z"/><path class="cls-1" d="M184.52,72.7c-8.1-5.94-16.36-4.58-23.78.12-1.66-4.42-3.55-8.34-4.49-12.47-.47-2.11,0-5.57,1.41-6.69,2-1.63,5.66-2.82,8-2.14,3.81,1.09,6.75,3,11.5,2.26,4.45-.73,8.91,3,10.76,8.13C189.51,66.23,188.27,69.69,184.52,72.7Z"/><path class="cls-1" d="M291.86,100.85c1.7,5.65,3.13,11.26,5.11,16.66,1.55,4.24.43,7.17-4.06,7.33-2.45.09-5-1.26-7.42-2-3.23-1-6.36-2.45-9.66-3.1s-5.5-1.74-5.67-5.57c-.09-2.09-.94-4.15-1.43-6.23-.92-4,2.69-7.66,6.44-6.33C281.29,103.73,287.15,103.66,291.86,100.85Z"/><path class="cls-1" d="M260.09,63c-4.91-2-7.55-5.25-6.77-10.24s4.54-7.43,9.22-7.58c5.36-.17,9.8-1.24,13.9-5.22s10.58-2.43,13.57,2c3.16,4.67,1.45,9.43-3.93,10.69a15.67,15.67,0,0,1-5.41.6C271.82,52,265,55,260.09,63Z"/><path class="cls-1" d="M193.89,53.49c-3.15-2.06-6.61-3.91-9.54-6.37-2.09-1.75-4.77-4.33-4.79-6.56s2.66-4.8,4.7-6.61c2.42-2.16,5.53-3.53,8.16-5.48,3.43-2.54,6.93-3.31,10.59-.86s3.86,5.79,2.37,9.66c-.69,1.8-.66,3.86-1.15,5.75a5.82,5.82,0,0,1-1.47,2.73C199.76,48.5,196.63,51.12,193.89,53.49Z"/><path class="cls-1" d="M234.8,14.09,212.15,24.88a106.91,106.91,0,0,1-7.37-8c-3-3.85-1.82-8,2.46-10.4,3.31-1.82,6.64-3.64,10-5.37C221.13-.85,225-.24,227.6,3,230.47,6.5,232.59,10.61,234.8,14.09Z"/><path class="cls-1" d="M201.66,63.58c-.77-5.41,1-8.84,5.1-10.46q11-4.34,22.24-7.87c4.23-1.33,8.31-.49,11.06,3.46s1.59,8.21-2.83,10.52c-2.62,1.37-5.11,3-8.12,4.79C220.88,56.4,211.75,55.52,201.66,63.58Z"/><path class="cls-1" d="M344.22,85.83c0-3.77-.69-8.17.25-12.2a10.72,10.72,0,0,1,5.63-6.5c3.52-1.46,7.2.08,9.6,3.44,1,1.35,1.52,3.07,2.7,4.17a78.11,78.11,0,0,0,7.12,5.65,31.91,31.91,0,0,1,6,5C365.15,87.24,355.27,89.82,344.22,85.83Z"/><path class="cls-1" d="M344.62,95.53C352.24,94,360,100.9,367.56,95c-7.85,7.13-10.27,15-5.9,24.49a3.39,3.39,0,0,1,0,2.22,53.75,53.75,0,0,1-9.91,2.25c-1.19.1-3-1.57-3.75-2.88-2.78-4.79-4.71-9.7-3-15.6C345.79,102.77,344.85,99.6,344.62,95.53Z"/><path class="cls-1" d="M299.8,42.91c-3-7.28-7.7-11.9-15.31-13.38-.83-.16-2-2.85-1.67-4,1.05-3.6,5.79-5,10-4.23a55,55,0,0,0,12.1.74c3.9-.17,7.09.88,8.84,4.28s.58,6.66-2.36,8.86C307.86,37.87,304,40.14,299.8,42.91Z"/><path class="cls-1" d="M209,149.7c-2.24,5.23-3.18,10.61-6.33,13.81-2.9,2.94-8.17,3.55-12.13,5.07-1.57-5.8-3.65-10.61-3.95-15.54A16.23,16.23,0,0,1,190,142.67c.94-1.16,5.78.22,8.51,1.29C202,145.32,205.14,147.53,209,149.7Z"/><path class="cls-1" d="M249.67,25.8c2.59-1.36,4.93-2.62,7.3-3.83,3.11-1.58,6.31-3,9.35-4.71,1.56-.87,2.74-2.85,4.32-3.16,2.2-.43,4.62.24,6.95.44-.42,1.79-.77,3.6-1.29,5.35-.65,2.2-1.79,4.31-2.12,6.54A12.56,12.56,0,0,1,258.29,37a4.54,4.54,0,0,1-2.18-1.74C254.18,32.57,252.38,29.8,249.67,25.8Z"/><path class="cls-1" d="M284.21,138l-29.94,8.36c0-3.8-.36-6.93.09-9.94.64-4.36,3.29-7.19,7.93-7.5,4.28-.29,8.58-.45,12.87-.52C280.07,128.34,282.72,131,284.21,138Z"/><path class="cls-1" d="M109.15,123.22c-4.48.29-8.76-.2-12.48,1-3.23,1.05-5.78,4.11-8.75,6.1a55.72,55.72,0,0,1-5.58,2.92c-1-2.6-2.54-5.16-2.7-7.81-.08-1.45,2.21-3,3.42-4.58,1.79-2.28,4-4.36,5.28-6.89,3-5.76,9.19-6.84,13.31-1.88,2.11,2.55,3.93,5.33,5.82,8.06A32.56,32.56,0,0,1,109.15,123.22Z"/><path class="cls-1" d="M126.46,85.09c-2.76-4.29-1.64-7.09,1-10,2.52-2.72,4.29-6.22,7-8.63,2.25-2,5.53-4.12,8.23-4,3.87.22,8,2.46,8.33,7.17.13,1.76-1.58,3.93-3,5.47C142.33,81.7,132.61,79,126.46,85.09Z"/><path class="cls-1" d="M377.89,42.38c-2.76-4.28-4.33-9.11-1.67-12,2.52-2.72,4.28-6.22,7-8.64,2.26-2,8.23-2.09,10.93-1.93,3.87.22,8,2.46,8.33,7.18.13,1.75.55,8.91-.82,10.45C395.89,44,382.73,48.25,377.89,42.38Z"/><path class="cls-1" d="M248.66,43.3c-4.77-2.5-8.21-5.45-12-6-4.87-.71-10,.63-15,.8-1.71.06-3.45-.74-5.17-1.15.76-1.91,1-4.61,2.4-5.59,4-2.79,8.34-5.61,13-7,2.53-.73,6.64.71,8.76,2.6,3,2.66,4.92,6.54,6.91,10.12C248.35,38.67,248.22,40.78,248.66,43.3Z"/><path class="cls-1" d="M213.2,158.2c2.46-2.66,4.11-5.45,6.55-6.87,3.59-2.08,6.49-3.94,7.33-8.53a6.65,6.65,0,0,1,7.65-5.65,13.25,13.25,0,0,1,7.81,4.8c2.09,3,1.92,7.07-2.33,8.67-8,3-16.21,5.59-24.35,8.3C215.48,159.05,214.94,158.69,213.2,158.2Z"/><path class="cls-1" d="M147.09,54.61c-9.42-2.12-16.63.83-21.29,9.93-2.64-3.08-2-5.9,0-8.23,4.26-5,8.76-9.76,13.31-14.49,3-3.09,6.63-3.93,10.41-1.67,3,1.79,4.71,4.18,1.8,7.7A61.25,61.25,0,0,0,147.09,54.61Z"/><path class="cls-1" d="M191.89,19.05c-4.28,2.73-8.19,4.83-11.62,7.55-3,2.4-5.52,5.47-8.23,8.26-1.31,1.36-2.93,4.11-3.8,3.89-2.68-.69-5.77-2-7.32-4.09-1-1.37-.19-4.8.85-6.77.76-1.46,3.08-2.46,4.89-2.95,4.66-1.26,9.07-2.22,12.26-6.71C181.52,14.57,186.48,15.08,191.89,19.05Z"/><path class="cls-1" d="M119.24,90.12c-4.21,3.68-8,7.1-11.95,10.39-1.12.95-3,2.42-3.81,2.07a24.75,24.75,0,0,1-7.92-5c-.52-.53,1.31-4.17,2.75-5.73,3.18-3.44,6.92-6.34,10.21-9.68,3.55-3.61,6.48-3,8.19,1.81C117.59,86.46,118.7,88.84,119.24,90.12Z"/><path class="cls-1" d="M45.81,232.92c5.85,1.05,10.44,1.42,14.71,2.78,3.34,1.06,3.8,4.25,1.83,7a50.85,50.85,0,0,1-7.68,8.5,6.31,6.31,0,0,1-5.36,1.14c-1.42-.55-2.32-2.8-3.16-4.46a40.82,40.82,0,0,1-3-7.07c-.52-1.78-1-4-.35-5.57C43.37,233.86,45.49,233.14,45.81,232.92Z"/><path class="cls-1" d="M266.91,6.22c-4.34,2.32-8.43,7.94-15.71,9.05-5.36.82-7.39.09-9.56-6.88-.94-3,1.72-6.57,5.75-7.25a11.4,11.4,0,0,1,4.87.46C257.44,3.13,262.58,4.84,266.91,6.22Z"/><path class="cls-1" d="M292.37,136.15c5.86-4.57,10.21-8.48,15.09-11.52,2.15-1.34,5.44-1.39,8.11-1.11,1.3.14,2.59,2.28,3.41,3.78.26.48-.81,2.42-1.55,2.62C309.49,132,301.5,133.92,292.37,136.15Z"/><path class="cls-1" d="M326.31,121c3.32-.41,6.27-1.2,9.12-.94,1.4.12,2.63,2.19,3.94,3.38-1.13,1.18-2.05,3-3.42,3.43C330.05,128.73,327.88,127.37,326.31,121Z"/><path class="cls-2" d="M294.73,494.06c-11.53,1.72-22.36,3.39-33.2,4.94-17.15,4.1-22.73-3.66-23.3-4.94-9.24-21-16.32-37.66-25.38-58.72a10.4,10.4,0,0,1-.38-1.4c.18-.33-42.4-97.51-43.29-99.55q-25.71-58.9-51-118c-.55-1.27,0-4.26.89-4.72C140,201.1,161,190.78,182.83,180,220.28,285.13,257.34,389.11,294.73,494.06Z"/><text class="cls-3" transform="translate(426.74 347.65)">$</text><text class="cls-4" transform="translate(0 106.91)">$</text><text class="cls-4" transform="translate(55.36 356.66)">$</text></g></g></svg>